<svg width="84" height="83" viewBox="0 0 84 83" fill="none" xmlns="http://www.w3.org/2000/svg">
<ellipse cx="40.9944" cy="42.2188" rx="17.4795" ry="17.3324" fill="#3164FA"/>
<path d="M-0.00830078 22.3982L16.4724 36.0165L28.4584 17.4461L20.4677 1.35168L-0.00830078 22.3982Z" stroke="#001F5C" stroke-width="1.65375" stroke-linecap="round" stroke-linejoin="round"/>
<path d="M13.2261 24.3789C9.14753 28.4231 1.19018 39.1362 1.98924 49.6347C2.98807 62.7579 12.7267 64.7387 20.2179 56.3201C27.7091 47.9015 18.2202 42.3267 13.2261 51.6156C8.23193 60.9045 14.7243 70.4336 20.2179 71.1765C25.7115 71.9193 32.4536 67.71 31.9542 62.015C31.4547 56.3201 24.9623 58.7962 23.9635 67.2148C22.9647 75.6334 31.4547 84.5472 39.6951 78.8522" stroke="#001F5C" stroke-width="1.65375" stroke-linecap="round" stroke-linejoin="round"/>
<path d="M62.6465 28.2707L72.8461 17.5017M56.0407 23.861L68.8275 5.77762" stroke="#001F5C" stroke-width="1.65375" stroke-linecap="round" stroke-linejoin="round"/>
<path d="M82.6793 82.6364L56.7097 51.9333L82.6793 61.0947V82.6364Z" stroke="#001F5C" stroke-width="1.65375" stroke-linecap="round" stroke-linejoin="round"/>
</svg>
