<svg width="117" height="79" viewBox="0 0 117 79" fill="none" xmlns="http://www.w3.org/2000/svg">
<path d="M104.764 21.6631L115.193 12.4219M98.9923 16.9558L112.462 1.06626" stroke="#001F5C" stroke-width="1.8" stroke-linecap="round" stroke-linejoin="round"/>
<path fill-rule="evenodd" clip-rule="evenodd" d="M15.1479 39.3178C15.1479 30.5508 22.255 23.4437 31.0221 23.4437H85.9202C94.6873 23.4437 101.794 30.5508 101.794 39.3178C101.794 43.4496 100.216 47.2128 97.6289 50.037L80.1435 42.1778L84.313 55.192H31.0221C22.255 55.192 15.1479 48.0849 15.1479 39.3178ZM72.4045 34.7384L61.4142 39.5745V35.8445C61.4145 34.3226 60.1917 33.0887 58.6832 33.0884C58.307 33.0884 57.9349 33.1666 57.5901 33.3184L42.7766 39.8373C41.3951 40.4488 40.7667 42.0744 41.3728 43.4679C41.9771 44.8572 43.5808 45.4924 44.9606 44.8889L55.9512 40.0525V43.7826C55.951 45.3044 57.1739 46.5384 58.6824 46.5385C59.0585 46.5385 59.4306 46.4603 59.7753 46.3085L74.589 39.7895C75.9719 39.1812 76.6039 37.557 76.0008 36.1621C75.3978 34.767 73.7878 34.1294 72.4051 34.7378L72.4045 34.7384Z" fill="#3164FA"/>
<path d="M79.891 42.1467L91.8356 78.0146L96.2988 60.2265" stroke="#001F5C" stroke-width="1.8" stroke-linecap="round" stroke-linejoin="round"/>
<path d="M79.8911 42.1468L114.435 57.5049L96.299 60.2266" stroke="#001F5C" stroke-width="1.8" stroke-linecap="round" stroke-linejoin="round"/>
<circle cx="15.8273" cy="20.0742" r="14.3273" stroke="#001F5C" stroke-width="1.8" stroke-linecap="round" stroke-linejoin="round"/>
<circle r="6.78664" transform="matrix(1 0 0 -1 15.6185 20.0741)" stroke="#001F5C" stroke-width="1.8" stroke-linecap="round" stroke-linejoin="round"/>
</svg>
