<svg width="40" height="41" viewBox="0 0 40 41" fill="none" xmlns="http://www.w3.org/2000/svg">
<path fill-rule="evenodd" clip-rule="evenodd" d="M15.6579 1.87719L14.0924 0.218222C17.255 -0.188746 25.5996 0.333131 33.6777 5.67638C33.7827 6.41436 33.7601 7.15 33.7601 7.15L34.0895 7.32809C34.4539 7.86396 34.857 8.79909 35.1022 9.94148C35.3594 11.1401 35.4315 12.5154 35.1336 13.8258C34.8326 15.1503 34.2609 16.2444 33.7009 17.0448C33.1596 17.8185 32.6596 18.2757 32.4626 18.4097C31.4312 18.5371 29.8576 19.2562 29.2995 21.2806C27.6786 22.2371 25.0601 23.2296 21.5591 23.2296C18.3093 23.2296 15.0001 22.2891 12.5183 20.4761C10.0507 18.6735 8.39928 16.012 8.39928 12.5055C8.39928 9.72287 9.6466 7.54668 11.2383 5.9398C12.8374 4.32549 15.0562 3.02232 16.3192 2.58986L16.1556 2.40592C16.156 2.40589 16.1564 2.40586 16.1567 2.40584L16.1371 2.38501L15.6792 1.86987C15.6721 1.8723 15.665 1.87474 15.6579 1.87719ZM13.6273 2.78309C5.86826 4.54502 0 11.6077 0 20.1174C0 31.0655 9.25406 40.1117 20.6695 40.1117C29.1937 40.1117 36.2893 34.8998 39.9994 27.9266C35.129 29.0817 29.3261 27.0695 29.1408 22.6434C27.3447 23.5538 24.7859 24.3496 21.5591 24.3496C18.1123 24.3496 14.5616 23.3557 11.8576 21.3805C9.13949 19.3948 7.2793 16.4143 7.2793 12.5055C7.2793 9.35602 8.69971 6.91113 10.4426 5.15161C11.4512 4.13343 12.5816 3.35281 13.6273 2.78309ZM36.1972 9.70646C36.107 9.28618 35.9958 8.88368 35.8698 8.50832C37.8966 10.0908 39.4386 12.224 39.3048 15.154C39.1048 19.5349 36.4585 21.2585 34.7643 21.5458C35.5775 20.1812 34.8998 19.3194 34.6288 19.0322C34.5132 18.9097 34.2899 18.7138 33.9219 18.5684C34.1462 18.3185 34.3838 18.0224 34.6186 17.6869C35.2452 16.7913 35.8868 15.5654 36.2258 14.074C36.5679 12.5685 36.48 11.0238 36.1972 9.70646ZM30.228 6.69262C29.6346 7.34085 29.0796 7.65186 28.9212 7.7362C25.4556 6.96319 24.207 5.08317 24.207 5.08317C27.476 5.06202 30.4264 5.87732 32.585 7.25652C32.585 7.25652 31.4165 6.85944 30.228 6.69262Z" fill="#F5F8FF"/>
</svg>
