<svg width="72" height="60" viewBox="0 0 72 60" fill="none" xmlns="http://www.w3.org/2000/svg">
<rect x="27.2573" y="1.46307" width="43.2256" height="57.3062" rx="1.01929" stroke="#001F5C" stroke-width="1.66143" stroke-linecap="round" stroke-linejoin="round"/>
<path d="M46.8309 14.866H36.6293" stroke="#001F5C" stroke-width="1.665" stroke-linecap="round" stroke-linejoin="round"/>
<path d="M61.1126 25.0325H36.6288" stroke="#001F5C" stroke-width="1.665" stroke-linecap="round" stroke-linejoin="round"/>
<path d="M61.1126 35.1996H36.6288" stroke="#001F5C" stroke-width="1.665" stroke-linecap="round" stroke-linejoin="round"/>
<path d="M61.1126 45.3665H50.911" stroke="#001F5C" stroke-width="1.665" stroke-linecap="round" stroke-linejoin="round"/>
<path d="M5.77686 34.8269C2.59644 34.8269 0.0194092 32.2587 0.0194092 29.0891C0.0194092 25.9195 2.59644 23.3513 5.77686 23.3513C8.13742 23.3513 10.1594 24.7696 11.0484 26.794H19.6026C20.8702 26.794 21.8977 27.8215 21.8977 29.0891V29.0891C21.8977 30.3567 20.8702 31.3842 19.6026 31.3842H11.0484C10.1594 33.4085 8.13742 34.8269 5.77686 34.8269Z" fill="#3164FA"/>
<path d="M8.07984 57.7782C4.89942 57.7782 2.32239 55.21 2.32239 52.0404C2.32239 48.4233 5.68474 45.598 9.39484 46.4678L13.1464 41.4828C13.5817 40.9044 14.2633 40.5647 14.9888 40.5647H19.6026C20.8702 40.5647 21.8977 41.5923 21.8977 42.8599V42.8599C21.8977 44.1274 20.8702 45.155 19.6026 45.155H16.1403L13.0704 49.2311C15.2905 53.1375 12.4048 57.7782 8.07984 57.7782Z" fill="#3164FA"/>
<path d="M8.07984 0.399994C12.4233 0.399994 15.2813 5.05452 13.0727 8.94706L16.1403 13.0232H19.6026C20.8702 13.0232 21.8977 14.0508 21.8977 15.3184V15.3184C21.8977 16.5859 20.8702 17.6135 19.6026 17.6135H14.9888C14.2633 17.6135 13.5817 17.2738 13.1464 16.6954L9.39714 11.7104C5.68244 12.5803 2.32239 9.75266 2.32239 6.13782C2.32239 2.96825 4.89942 0.399994 8.07984 0.399994Z" fill="#3164FA"/>
</svg>
