<svg width="133" height="85" viewBox="0 0 133 85" fill="none" xmlns="http://www.w3.org/2000/svg">
<mask id="mask0_742_5594" style="mask-type:alpha" maskUnits="userSpaceOnUse" x="0" y="0" width="133" height="85">
<rect x="0.666687" y="0.110046" width="132" height="84" fill="white"/>
</mask>
<g mask="url(#mask0_742_5594)">
<rect x="27.924" y="13.5731" width="43.2256" height="57.3062" rx="1.01929" stroke="#001F5C" stroke-width="1.66143" stroke-linecap="round" stroke-linejoin="round"/>
<path d="M47.4976 26.976H37.296" stroke="#001F5C" stroke-width="1.665" stroke-linecap="round" stroke-linejoin="round"/>
<path d="M61.7793 37.1425H37.2955" stroke="#001F5C" stroke-width="1.665" stroke-linecap="round" stroke-linejoin="round"/>
<path d="M61.7793 47.3096H37.2955" stroke="#001F5C" stroke-width="1.665" stroke-linecap="round" stroke-linejoin="round"/>
<path d="M61.7793 57.4765H51.5777" stroke="#001F5C" stroke-width="1.665" stroke-linecap="round" stroke-linejoin="round"/>
<path d="M6.44355 46.937C3.26313 46.937 0.686096 44.3687 0.686096 41.1991C0.686096 38.0296 3.26313 35.4613 6.44355 35.4613C8.8041 35.4613 10.8261 36.8797 11.7151 38.904H20.2693C21.5368 38.904 22.5644 39.9316 22.5644 41.1991C22.5644 42.4667 21.5368 43.4943 20.2693 43.4943H11.7151C10.8261 45.5186 8.8041 46.937 6.44355 46.937Z" fill="#3164FA"/>
<path d="M8.74653 69.8883C5.56611 69.8883 2.98907 67.32 2.98907 64.1504C2.98907 60.5333 6.35143 57.708 10.0615 58.5779L13.8131 53.5928C14.2483 53.0145 14.93 52.6748 15.6555 52.6748H20.2693C21.5368 52.6748 22.5644 53.7023 22.5644 54.9699C22.5644 56.2375 21.5368 57.265 20.2693 57.265H16.807L13.7371 61.3412C15.9572 65.2475 13.0715 69.8883 8.74653 69.8883Z" fill="#3164FA"/>
<path d="M8.74653 12.51C13.0899 12.51 15.9479 17.1646 13.7394 21.0571L16.807 25.1333H20.2693C21.5368 25.1333 22.5644 26.1608 22.5644 27.4284C22.5644 28.696 21.5368 29.7235 20.2693 29.7235H15.6555C14.93 29.7235 14.2483 29.3839 13.8131 28.8055L10.0638 23.8205C6.34912 24.6903 2.98907 21.8627 2.98907 18.2479C2.98907 15.0783 5.56611 12.51 8.74653 12.51Z" fill="#3164FA"/>
</g>
</svg>
