<svg width="128" height="32" viewBox="0 0 128 32" fill="none" xmlns="http://www.w3.org/2000/svg">
<path d="M91.5002 8.14453C93.825 8.14453 95.2853 8.80153 96.6686 9.98026L95.17 11.7773C94.1325 10.8885 93.0949 10.3474 91.4042 10.3474C88.9448 10.3474 87.0427 12.5116 87.0427 15.101L87.0439 15.2619C87.0966 17.982 88.9084 19.9705 91.6155 19.9705C92.9028 19.9705 94.0364 19.5647 94.8626 18.9463V16.4343L97.149 14.3474V20.0285C95.804 21.1685 93.9211 22.1347 91.5386 22.1347C87.3309 22.1347 84.5642 19.1203 84.5642 15.1783L84.5652 15.0163C84.6266 11.2829 87.4713 8.14453 91.5002 8.14453ZM106.716 8.14453C110.847 8.14453 113.729 11.2943 113.729 15.101L113.728 15.2616C113.666 18.9956 110.764 22.1347 106.678 22.1347C102.547 22.1347 99.6651 18.985 99.6651 15.1783L99.6661 15.0177C99.728 11.2836 102.63 8.14453 106.716 8.14453ZM47.1549 8.2798L53.0726 21.9028L50.6669 21.9027L46.0213 11.1203L41.4096 21.9027L39.0469 21.9028L44.9646 8.2798H47.1549ZM77.635 8.2798L83.5528 21.9028L81.1471 21.9027L76.5015 11.1203L71.8898 21.9027L69.527 21.9028L75.4447 8.2798H77.635ZM118.47 8.37641L125.675 17.729V8.37641H127.999V21.9028H126.02L118.604 12.2798V21.9028H116.279V8.37641H118.47ZM106.678 10.3474C104.007 10.3474 102.144 12.473 102.144 15.101L102.145 15.2553C102.199 17.8308 104.066 19.9318 106.716 19.9318C109.387 19.9318 111.251 17.8063 111.251 15.1783L111.25 15.024C111.195 12.4484 109.328 10.3474 106.678 10.3474Z" fill="#3164FA"/>
<path d="M61.9293 8.14453C63.6234 8.14453 64.9517 8.65522 65.818 9.51947C66.5302 10.2855 66.9345 11.2872 66.9345 12.4854L66.934 12.598C66.9062 14.7642 65.6433 16.0858 63.8599 16.6518L63.7389 16.6888L67.3773 21.8939H64.5667L61.2556 17.1013L59.5175 17.1009L60.7372 14.9599L61.7561 14.9603C63.4116 14.9603 64.4789 14.1161 64.5265 12.7578L64.5282 12.6622L64.5278 12.5705C64.5041 11.1117 63.4871 10.3444 61.7368 10.3444H58.291L58.2906 14.5947L58.2888 14.5945V17.6607L58.2906 17.6596L58.291 21.8939H55.9232V8.14453H61.9293Z" fill="#3164FA"/>
<path fill-rule="evenodd" clip-rule="evenodd" d="M27.2533 14.8239C28.1541 13.8439 28.8343 12.5219 29.1349 10.9909C29.4118 9.58104 29.3269 8.1965 28.9551 6.98543C30.4198 8.22515 31.4959 9.8645 31.3911 12.0664C31.2253 15.5523 29.1341 16.9185 27.7968 17.1437C28.4409 16.0594 27.9078 15.3722 27.6944 15.1431C27.6162 15.0591 27.4754 14.9319 27.2533 14.8239Z" fill="#3164FA"/>
<path fill-rule="evenodd" clip-rule="evenodd" d="M13.1751 2.00124L11.543 0.0416478C14.9452 -0.182447 22.72 0.389763 26.7535 4.44827C26.7927 4.72786 26.8267 5.12279 26.8267 5.62074C27.2725 5.82365 27.4901 5.93075 27.5431 5.95893C28.3391 7.36803 29.2148 11.0655 26.3491 14.5826C24.2879 14.813 23.5435 16.3684 23.368 17.4514C21.7935 18.187 19.9691 18.6075 18.0241 18.6075C12.0802 18.6075 7.26172 14.6799 7.26172 9.83498C7.26172 6.41194 9.667 3.44681 13.1751 2.00124ZM24.2688 5.29059C23.8538 5.74971 23.4657 5.96999 23.355 6.02972C20.9316 5.48223 20.0586 4.15067 20.0586 4.15067C22.3444 4.1357 24.4075 4.71314 25.9169 5.68998C25.9169 5.68998 25.0998 5.40874 24.2688 5.29059Z" fill="#3164FA"/>
<path fill-rule="evenodd" clip-rule="evenodd" d="M23.3593 18.4496C21.7306 19.1338 19.881 19.5203 17.9201 19.5203C11.381 19.5203 6.08008 15.2222 6.08008 9.92031C6.08008 7.03973 7.64483 4.45548 10.1227 2.69586C10.2299 2.61978 10.141 2.4396 10.0191 2.48853C4.12373 4.85432 0 10.2876 0 16.612C0 25.1101 7.44569 31.9993 16.6304 31.9993C23.5612 31.9993 29.5018 28.0764 32 22.4995C31.2565 22.7372 30.4395 22.8685 29.5821 22.8685C26.2775 22.8685 23.5733 20.9173 23.3593 18.4496Z" fill="#3164FA"/>
</svg>
