<svg width="79" height="48" viewBox="0 0 79 48" fill="none" xmlns="http://www.w3.org/2000/svg">
<path d="M16.3751 9.37829C29.1466 -3.1261 49.8534 -3.1261 62.6249 9.37829L64.1623 10.8831C64.3139 11.0302 64.4344 11.2061 64.5167 11.4006C64.5989 11.595 64.6413 11.804 64.6413 12.0152C64.6413 12.2263 64.5989 12.4353 64.5167 12.6298C64.4344 12.8243 64.3139 13.0002 64.1623 13.1472L58.9043 18.2954C58.7494 18.4458 58.5421 18.5299 58.3262 18.5299C58.1103 18.5299 57.903 18.4458 57.7481 18.2954L55.6325 16.2244C46.723 7.50089 32.277 7.50089 23.3675 16.2244L21.1024 18.4422C20.9475 18.5926 20.7401 18.6767 20.5242 18.6767C20.3084 18.6767 20.101 18.5926 19.9461 18.4422L14.6881 13.2941C14.5365 13.147 14.4161 12.9711 14.3338 12.7766C14.2515 12.5822 14.2091 12.3732 14.2091 12.162C14.2091 11.9509 14.2515 11.7419 14.3338 11.5474C14.4161 11.353 14.5365 11.177 14.6881 11.03L16.3751 9.37829V9.37829ZM73.4993 20.0249L78.1787 24.6069C78.3303 24.7538 78.4508 24.9298 78.5331 25.1243C78.6155 25.3187 78.6579 25.5277 78.6579 25.7389C78.6579 25.9501 78.6155 26.1591 78.5331 26.3536C78.4508 26.548 78.3303 26.724 78.1787 26.8709L57.078 47.531C56.7683 47.8318 56.3535 48 55.9218 48C55.4901 48 55.0753 47.8318 54.7656 47.531L39.7893 32.8681C39.7119 32.7929 39.6082 32.7508 39.5003 32.7508C39.3923 32.7508 39.2887 32.7929 39.2112 32.8681L24.235 47.5305C23.9252 47.8312 23.5105 47.9995 23.0787 47.9995C22.647 47.9995 22.2323 47.8312 21.9225 47.5305L0.820802 26.8715C0.669248 26.7245 0.548758 26.5485 0.466476 26.3541C0.384195 26.1596 0.341797 25.9506 0.341797 25.7395C0.341797 25.5283 0.384195 25.3193 0.466476 25.1248C0.548758 24.9304 0.669248 24.7544 0.820802 24.6074L5.5007 20.0254C5.81046 19.7247 6.22521 19.5564 6.65694 19.5564C7.08868 19.5564 7.50343 19.7247 7.81319 20.0254L22.79 34.6873C22.8674 34.7625 22.9711 34.8045 23.079 34.8045C23.1869 34.8045 23.2906 34.7625 23.3681 34.6873L38.3438 20.0249C38.6535 19.7241 39.0683 19.5559 39.5 19.5559C39.9317 19.5559 40.3465 19.7241 40.6562 20.0249L55.6325 34.6878C55.7099 34.763 55.8136 34.8051 55.9215 34.8051C56.0295 34.8051 56.1331 34.763 56.2106 34.6878L71.1868 20.0254C71.4966 19.7247 71.9113 19.5564 72.3431 19.5564C72.7748 19.5564 73.1895 19.7247 73.4993 20.0254V20.0249Z" fill="#3164FA"/>
</svg>
